<svg xmlns="http://www.w3.org/2000/svg" width="37" height="50" fill="none" viewBox="0 0 37 50"><path fill="url(#paint0_linear_3_272)" fill-rule="evenodd" d="M36.3634 31.3726C36.3634 41.8428 28.1633 50 18.1818 50C8.20036 50 0 42.2428 0 31.7726C0 29.2023 0.286012 25.7063 1.85139 23.0814C3.03907 21.09 3.82028 20.2249 4.94564 18.9787L4.94572 18.9786C5.30365 18.5822 5.6964 18.1472 6.14812 17.6253C6.42989 17.2997 6.67563 17.0207 6.8949 16.7717L6.89514 16.7715L6.89516 16.7714C8.1326 15.3666 8.52737 14.9184 9.80049 12.4493C11.2993 9.54238 12.3458 3.83721 12.3458 0C12.698 0.296677 13.0866 0.614068 13.503 0.95408C15.9214 2.92902 19.2744 5.66717 21.8395 9.54238C24.9024 14.1699 26.9225 21.9039 26.9225 22.6033C26.9739 22.5626 27.0343 22.5161 27.1027 22.4636C28.165 21.6473 31.1481 19.3553 31.7344 14.2849C33.1953 16.9295 33.4736 17.4823 34.8552 21.7645C36.2367 26.0469 36.3634 28.8023 36.3634 31.3726ZM31.5213 26.5382C31.4203 26.8292 31.2673 27.0849 31.078 27.3014C32.787 30.8584 33.047 34.9157 31.7588 38.6274C29.1439 46.162 20.9567 49.9794 13.5084 47.1363C6.05955 44.2931 2.12756 35.8497 4.74249 28.3151C5.74463 25.4276 7.63328 22.9606 10.1065 21.2742C10.0319 20.8753 10.0539 20.4548 10.1944 20.0499C10.6193 18.8254 11.95 18.2051 13.1599 18.6669C14.3709 19.1292 15.0101 20.5014 14.5851 21.7259C14.1601 22.9504 12.8297 23.5701 11.6186 23.1079C11.3597 23.009 11.1292 22.8664 10.9272 22.6948C8.77322 24.1917 7.12856 26.359 6.24996 28.8906C3.92678 35.5845 7.42018 43.0851 14.0378 45.6111C20.6553 48.1371 27.9281 44.746 30.2514 38.0517C31.388 34.777 31.1691 31.1983 29.6778 28.0536C29.3123 28.1024 28.9284 28.0634 28.5558 27.9212C27.3453 27.4592 26.7062 26.0869 27.1311 24.8624C27.5559 23.6385 28.8866 23.0182 30.097 23.4802C31.3075 23.9423 31.946 25.3143 31.5213 26.5382ZM29.5678 25.0052C29.1886 24.8604 28.7717 25.0542 28.6386 25.4378C28.5053 25.822 28.7058 26.2515 29.085 26.3963C29.4642 26.541 29.8805 26.3469 30.0138 25.9627C30.1469 25.5792 29.947 25.1499 29.5678 25.0052ZM13.0774 21.1501C13.2108 20.7659 13.0102 20.3364 12.6304 20.1914C12.2515 20.0468 11.8349 20.241 11.7016 20.6249C11.5685 21.0085 11.7684 21.4378 12.1476 21.5825C12.5274 21.7275 12.9443 21.5336 13.0774 21.1501ZM12.5016 27.0088C12.2802 27.6467 12.3497 28.3226 12.6352 28.8907C12.1681 29.4928 11.8013 30.1678 11.5442 30.9085C10.2449 34.6523 12.1986 38.847 15.8989 40.2594C19.5986 41.6716 23.6657 39.775 24.965 36.0313C25.3236 34.9978 25.4398 33.8985 25.3169 32.8111C25.7002 32.5454 26.0081 32.1595 26.1747 31.6795C26.5996 30.4551 25.9606 29.0831 24.7496 28.6209C23.5393 28.1589 22.2094 28.7794 21.7845 30.0037C21.3594 31.2287 21.9976 32.6011 23.2079 33.0631C23.3885 33.132 23.5717 33.1738 23.7541 33.1963C23.8085 33.9607 23.7099 34.7292 23.4578 35.4556C22.4504 38.3582 19.2973 39.8295 16.4282 38.7343C13.5588 37.6391 12.0441 34.3865 13.0516 31.4836C13.2368 30.9501 13.5002 30.4641 13.8265 30.0231C13.8376 30.028 13.8485 30.0331 13.8595 30.0382C13.8815 30.0484 13.9036 30.0587 13.9266 30.0674C15.137 30.5294 16.4674 29.9092 16.8924 28.6848C17.3173 27.4605 16.678 26.089 15.4677 25.627C14.2568 25.1648 12.9265 25.7845 12.5016 27.0088ZM23.2917 30.5794C23.425 30.1952 23.8412 30.0012 24.2203 30.1459C24.6001 30.2909 24.8006 30.7203 24.6673 31.1044C24.534 31.4886 24.1167 31.6836 23.737 31.5387C23.3578 31.3939 23.1585 30.9632 23.2917 30.5794ZM15.3851 28.1095C15.2518 28.4936 14.835 28.6874 14.4558 28.5427C14.0761 28.3978 13.8756 27.9683 14.0089 27.5842C14.142 27.2006 14.5588 27.0068 14.9385 27.1518C15.3177 27.2965 15.5181 27.7262 15.3851 28.1095ZM9.12416 30.3285C10.3357 30.791 10.975 32.1637 10.5499 33.3887C10.3353 34.0071 9.8895 34.4709 9.34453 34.7201C9.86732 38.0513 12.1167 40.8896 15.2732 42.0944C19.9764 43.8897 25.1461 41.4796 26.7975 36.7212C27.5972 34.417 27.4618 31.9116 26.417 29.6663C25.4536 27.5957 23.8195 25.9773 21.7826 25.0561C21.1691 25.6556 20.2448 25.8804 19.3796 25.5502C18.1687 25.088 17.5293 23.7152 17.9543 22.4909C18.3794 21.2659 19.7105 20.6453 20.9214 21.1076C21.9472 21.4991 22.5599 22.5433 22.466 23.598C24.8341 24.6872 26.7338 26.5795 27.8582 28.9949C29.0878 31.637 29.247 34.585 28.3059 37.2966C26.3626 42.8962 20.279 45.7324 14.7442 43.6197C10.9935 42.1881 8.32886 38.7963 7.7483 34.8266C7.73483 34.8224 7.72137 34.8183 7.70794 34.8142C7.66576 34.8012 7.62378 34.7884 7.5819 34.7724C6.37158 34.3104 5.73245 32.9371 6.15758 31.7121C6.58271 30.4871 7.91384 29.8666 9.12416 30.3285ZM19.4624 23.0662C19.3292 23.4499 19.5298 23.8796 19.9091 24.0244C20.2891 24.1694 20.7055 23.9753 20.8387 23.5915C20.972 23.2072 20.772 22.7778 20.3921 22.6328C20.0128 22.488 19.5958 22.6819 19.4624 23.0662ZM8.59443 31.8539C8.21509 31.7091 7.79868 31.9033 7.6653 32.2876C7.53191 32.6719 7.732 33.1021 8.11103 33.2468C8.49096 33.3918 8.90819 33.1973 9.04157 32.8129C9.17496 32.4286 8.97436 31.999 8.59443 31.8539Z" clip-rule="evenodd"/><defs><linearGradient id="paint0_linear_3_272" x1="0" x2="37.808" y1="0" y2="48.883" gradientUnits="userSpaceOnUse"><stop stop-color="#00FFA3"/><stop offset="1" stop-color="#FD00E4"/></linearGradient></defs></svg>